<svg width="75" height="76" viewBox="0 0 75 76" fill="none" xmlns="http://www.w3.org/2000/svg">
<rect y="0.5" width="75" height="75" rx="10" fill="#A1E3F9"/>
<path d="M27.1429 35.8182V24.9091C27.1429 18.3636 31.2857 14 37.5 14C43.7143 14 47.8571 18.3636 47.8571 24.9091V35.8182M37.5 44.5455V53.2727M37.5 62C41.3456 62 45.0338 60.3909 47.753 57.5267C50.4723 54.6625 52 50.7779 52 46.7273C52 42.6767 50.4723 38.792 47.753 35.9278C45.0338 33.0636 41.3456 31.4545 37.5 31.4545C33.6544 31.4545 29.9662 33.0636 27.247 35.9278C24.5277 38.792 23 42.6767 23 46.7273C23 50.7779 24.5277 54.6625 27.247 57.5267C29.9662 60.3909 33.6544 62 37.5 62ZM37.5 46.7273C38.0494 46.7273 38.5763 46.4974 38.9647 46.0882C39.3532 45.6791 39.5714 45.1241 39.5714 44.5455C39.5714 43.9668 39.3532 43.4118 38.9647 43.0027C38.5763 42.5935 38.0494 42.3636 37.5 42.3636C36.9506 42.3636 36.4237 42.5935 36.0353 43.0027C35.6468 43.4118 35.4286 43.9668 35.4286 44.5455C35.4286 45.1241 35.6468 45.6791 36.0353 46.0882C36.4237 46.4974 36.9506 46.7273 37.5 46.7273Z" stroke="white" stroke-width="4"/>
</svg>
