<svg width="75" height="76" viewBox="0 0 75 76" fill="none" xmlns="http://www.w3.org/2000/svg">
<rect y="0.5" width="75" height="75" rx="10" fill="#3674B5"/>
<path d="M22.819 52.0624H58.2031V14.5624H22.7214C21.1517 14.5674 19.6477 15.1932 18.5377 16.3032C17.4277 17.4132 16.8019 18.9172 16.7969 20.4869V55.0165H16.7979C16.7979 55.0312 16.7969 55.0458 16.7969 55.0607C16.7969 58.5177 19.51 61.4377 22.7214 61.4377H58.2031V58.3124H22.7214C21.2562 58.3124 19.9219 56.7625 19.9219 55.0604C19.9219 53.4354 21.2485 52.0624 22.819 52.0624ZM48.0469 17.7199V34.5965L43.3203 30.447L38.6719 34.5721V17.7199H48.0469ZM35.5469 17.6874V38.7811H38.6368L43.3316 34.6152L48.0767 38.7811H51.1719V17.6874H55.0781V48.9374H26.1797L26.1719 17.6874H35.5469ZM22.7214 17.6874H23.0469L23.0543 48.9374H22.8187C21.8025 48.9376 20.804 49.2029 19.9219 49.7072V20.5113C19.9195 19.7658 20.2129 19.0499 20.7377 18.5205C21.2625 17.9911 21.9759 17.6915 22.7214 17.6874Z" fill="white"/>
</svg>
