<svg width="75" height="76" viewBox="0 0 75 76" fill="none" xmlns="http://www.w3.org/2000/svg">
<rect y="0.5" width="75" height="75" rx="10" fill="#578FCA"/>
<path d="M56.8647 40.497C58.6203 37.9734 59.6802 35.0318 59.9376 31.9684C60.195 28.905 59.6408 25.8278 58.3309 23.0466C57.0211 20.2654 55.0016 17.8784 52.4759 16.1257C49.9503 14.3731 47.0074 13.3167 43.9437 13.0629C40.88 12.8091 37.8035 13.3669 35.0238 14.6801C32.2442 15.9932 29.8595 18.0155 28.1098 20.5432C26.3602 23.071 25.3073 26.015 25.0571 29.079C24.8069 32.1431 25.3683 35.2189 26.6847 37.997" stroke="white" stroke-width="3" stroke-linecap="round" stroke-linejoin="round"/>
<path d="M47.502 35.9471C46.5045 37.9246 44.692 39.2471 42.6195 39.2471C39.4745 39.2471 36.9245 36.1996 36.9245 32.4421V28.5521C36.9245 24.7946 39.4745 21.7471 42.6195 21.7471C44.692 21.7471 46.5045 23.0696 47.502 25.0471M33.752 30.4971H43.177M15.002 42.9971H20.9895C21.7245 42.9971 22.4495 43.1621 23.107 43.4821L28.212 45.9521C28.8695 46.2696 29.5945 46.4346 30.332 46.4346H32.937C35.457 46.4346 37.502 48.4121 37.502 50.8521C37.502 50.9521 37.4345 51.0371 37.337 51.0646L30.9845 52.8221C29.8446 53.137 28.6291 53.0268 27.5645 52.5121L22.107 49.8721M37.502 49.2471L48.9845 45.7196C49.9841 45.4128 51.0551 45.4297 52.0446 45.7678C53.0341 46.1058 53.8915 46.7478 54.4945 47.6021C55.417 48.8771 55.042 50.7071 53.697 51.4821L34.9095 62.3246C34.322 62.6645 33.6715 62.8812 32.9975 62.9616C32.3236 63.042 31.6404 62.9843 30.9895 62.7921L15.002 58.0471" stroke="white" stroke-width="3" stroke-linecap="round" stroke-linejoin="round"/>
</svg>
